<svg width="34" height="34" viewBox="0 0 34 34" fill="none" xmlns="http://www.w3.org/2000/svg">
<path d="M32.9375 14.875H32.2469C31.3071 8.09997 25.9 2.69291 19.125 1.75312V1.0625C19.125 0.768719 18.8875 0.53125 18.5938 0.53125H15.4062C15.1125 0.53125 14.875 0.768719 14.875 1.0625V1.75312C8.09997 2.69291 2.69291 8.09997 1.75312 14.875H1.0625C0.768719 14.875 0.53125 15.1125 0.53125 15.4062V18.5938C0.53125 18.8875 0.768719 19.125 1.0625 19.125H1.75312C2.69291 25.9 8.09997 31.3071 14.875 32.2469V32.9375C14.875 33.2313 15.1125 33.4688 15.4062 33.4688H18.5938C18.8875 33.4688 19.125 33.2313 19.125 32.9375V32.2469C25.9 31.3071 31.3071 25.9 32.2469 19.125H32.9375C33.2313 19.125 33.4688 18.8875 33.4688 18.5938V15.4062C33.4688 15.1125 33.2313 14.875 32.9375 14.875ZM31.1732 14.875H30.1001C29.1927 9.22463 24.7754 4.80728 19.125 3.89937V2.82625C25.3157 3.75116 30.2488 8.68434 31.1732 14.875ZM25.3321 18.0349L28.5196 19.0974C28.5738 19.1154 28.6307 19.125 28.6875 19.125H29.0243C28.1387 24.1852 24.1852 28.1387 19.125 29.0243V28.6875C19.125 28.6307 19.1154 28.5738 19.0974 28.5196L18.0349 25.3321C17.9626 25.1148 17.7602 24.9688 17.5312 24.9688H16.4688C16.2398 24.9688 16.0374 25.1148 15.9651 25.3321L14.9026 28.5196C14.8846 28.5738 14.875 28.6307 14.875 28.6875V29.0243C9.81484 28.1387 5.86128 24.1852 4.97569 19.125H5.3125C5.36934 19.125 5.42619 19.1154 5.48037 19.0974L8.66788 18.0349C8.88516 17.9626 9.03125 17.7602 9.03125 17.5312V16.4688C9.03125 16.2398 8.88516 16.0374 8.66788 15.9651L5.48037 14.9026C5.42619 14.8846 5.36934 14.875 5.3125 14.875H4.96825C5.85225 9.86213 9.83184 5.86553 14.875 4.97728V5.3125C14.875 5.36934 14.8846 5.42619 14.9026 5.48037L15.9651 8.66788C16.0374 8.88516 16.2398 9.03125 16.4688 9.03125H17.5312C17.7602 9.03125 17.9626 8.88516 18.0349 8.66788L19.0974 5.48037C19.1154 5.42619 19.125 5.36934 19.125 5.3125V4.97569C24.1852 5.86128 28.1387 9.81484 29.0243 14.875H28.6875C28.6307 14.875 28.5738 14.8846 28.5196 14.9026L25.3321 15.9651C25.1148 16.0374 24.9688 16.2398 24.9688 16.4688V17.5312C24.9688 17.7602 25.1148 17.9626 25.3321 18.0349ZM15.9375 1.59375H18.0625V5.22644L17.1482 7.96875H16.8512L15.9375 5.22644V1.59375ZM14.875 2.82678V3.90097C9.24428 4.80994 4.79984 9.27987 3.89353 14.875H2.82678C3.75116 8.68434 8.68434 3.75116 14.875 2.82678ZM1.59375 15.9375H4.29356L4.82322 15.9811C4.82428 15.9662 4.82747 15.9524 4.82906 15.9375H5.22644L7.96875 16.8518V17.1488L5.22644 18.0625H1.59375V15.9375ZM2.82678 19.125H3.89991C4.80728 24.7754 9.22463 29.1927 14.875 30.1006V31.1737C8.68434 30.2488 3.75116 25.3157 2.82678 19.125ZM18.0625 32.4062H15.9375V28.7736L16.8518 26.0312H17.1488L18.0625 28.7736V32.4062ZM19.125 31.1732V30.1001C24.7754 29.1927 29.1927 24.7754 30.1006 19.125H31.1737C30.2488 25.3157 25.3157 30.2488 19.125 31.1732ZM32.4062 18.0625H28.7736L26.0312 17.1482V16.8512L28.7736 15.9375H32.4062V18.0625Z" fill="#FF8383"/>
<g clip-path="url(#clip0)">
<path d="M19.2621 19.0711L15.1825 14.9916C15.0108 14.8199 14.7324 14.8199 14.5607 14.9916L13.3656 16.1867C13.1939 16.3584 13.1939 16.6368 13.3656 16.8085L17.4452 20.8881C17.6169 21.0598 17.8952 21.0598 18.0669 20.8881L19.2621 19.6929C19.4338 19.5212 19.4338 19.2428 19.2621 19.0711Z" fill="white"/>
<path d="M15.5331 21.9464L15.2985 21.7118L16.162 20.8482L13.4055 18.0918L12.542 18.9553L12.3074 18.7207C12.1357 18.549 11.8573 18.549 11.6856 18.7207C11.5139 18.8924 11.5139 19.1708 11.6856 19.3425L11.9203 19.5771L11.3676 20.1297C11.3676 20.1298 11.3675 20.1299 11.3675 20.1299L9.42275 22.0746C9.15013 22.3472 9 22.7103 9 23.0971C9 23.4839 9.15013 23.847 9.42275 24.1196L9.92077 24.6176C10.0925 24.7893 10.3708 24.7893 10.5425 24.6176C10.7142 24.4459 10.7142 24.1675 10.5425 23.9958L10.0445 23.4978C9.938 23.3913 9.87932 23.249 9.87932 23.0971C9.87932 22.9452 9.938 22.8029 10.0445 22.6963L11.6785 21.0623L12.124 21.5079L11.8182 21.8137C11.6465 21.9854 11.6465 22.2638 11.8182 22.4355C11.9899 22.6072 12.2683 22.6072 12.44 22.4355L12.7458 22.1297L13.5023 22.8861C13.674 23.0578 13.9523 23.0578 14.124 22.8861L14.6767 22.3335L14.9113 22.5682C15.083 22.7399 15.3614 22.7399 15.5331 22.5682C15.7048 22.3965 15.7048 22.1181 15.5331 21.9464Z" fill="white"/>
<path d="M19.8137 15.3256C20.0148 15.5267 20.1804 15.7499 20.311 15.9875L23.6825 12.6159C23.8542 12.4442 23.8542 12.1659 23.6825 11.9942L23.2818 11.5935L23.8711 11.0042C24.0428 10.8325 24.0428 10.5541 23.8711 10.3824C23.6994 10.2107 23.4211 10.2107 23.2493 10.3824L22.6601 10.9717L22.2594 10.571C22.177 10.4886 22.0652 10.4422 21.9485 10.4423C21.8319 10.4423 21.7201 10.4886 21.6376 10.571L18.2664 13.9423C18.5064 14.0744 18.7291 14.241 18.9279 14.4398L19.8137 15.3256Z" fill="white"/>
<path d="M19.192 15.9473L18.3062 15.0616C17.9182 14.6736 17.4008 14.46 16.849 14.46C16.5708 14.46 16.3013 14.5144 16.0527 14.6181L19.6351 18.2005C19.9475 17.452 19.8001 16.5554 19.192 15.9473Z" fill="white"/>
</g>
<defs>
<clipPath id="clip0">
<rect x="9" y="10" width="15" height="15" fill="white"/>
</clipPath>
</defs>
</svg>
